 <svg width="60" height="64" viewBox="0 0 300 300" fill="none" xmlns="http://www.w3.org/2000/svg">
                        <path d="M250 20H20V280H280V50H300V300H0V0H250V20Z" fill="white" />
                        <rect x="260" width="40" height="40" fill="#EE3859" />
                        <path
                            d="M127.442 208V200.647V193.294H134.795H142.148H149.501H156.854H164.207H171.56V200.647V208H164.207H156.854H149.501H142.148H134.795H127.442ZM112.737 193.294V185.941V178.588V171.235V163.882V156.529V149.176V141.824V134.471V127.118V119.765V112.412V105.059H120.089H127.442V112.412V119.765V127.118V134.471V141.824V149.176V156.529V163.882V171.235V178.588V185.941V193.294H120.089H112.737ZM171.56 193.294V185.941V178.588H178.913H186.266V185.941V193.294H178.913H171.56ZM171.56 119.765V112.412V105.059H178.913H186.266V112.412V119.765H178.913H171.56ZM127.442 105.059V97.7059V90.3529H134.795H142.148H149.501H156.854H164.207H171.56V97.7059V105.059H164.207H156.854H149.501H142.148H134.795H127.442Z"
                            fill="#EE3859" />
                    </svg>
